Coordinates
version=1
nRows=5
nColumns=42
inDegrees=yes

Units are S.I. units (second, meters, Newtons, ...)
If the header above contains a line with 'inDegrees', this indicates whether rotational values are in degrees (yes) or radians (no).

endheader
time	pelvis_tilt	pelvis_list	pelvis_rotation	pelvis_tx	pelvis_ty	pelvis_tz	hip_flexion_r	hip_adduction_r	hip_rotation_r	knee_angle_r	knee_adduction_r	knee_angle_r_beta	ankle_angle_r	subtalar_angle_r	mtp_angle_r	hip_flexion_l	hip_adduction_l	hip_rotation_l	knee_angle_l	knee_adduction_l	knee_angle_l_beta	ankle_angle_l	subtalar_angle_l	mtp_angle_l	lumbar_extension	lumbar_bending	lumbar_rotation	arm_flex_r	arm_add_r	arm_rot_r	elbow_flex_r	pro_sup_r	wrist_flex_r	wrist_dev_r	arm_flex_l	arm_add_l	arm_rot_l	elbow_flex_l	pro_sup_l	wrist_flex_l	wrist_dev_l
      3.48000000	      1.16710828	     -2.00775445	    -10.14999114	      1.68978532	      0.89107049	     -0.08025052	    -17.71094910	     -0.21662244	      0.92063931	     13.21731845	      5.00492336	      0.23068573	     16.24682358	      5.05972945	     -7.50000546	     23.41478382	     -6.10307878	     -9.54235426	      7.83395212	      4.61569399	      0.13672826	    -10.55876726	    -17.72586900	     -7.50000546	    -13.02770431	     -0.81957713	      4.33174095	      5.60632978	    -20.45690453	      6.30740998	     51.79922472	     90.00000001	      0.00000000	      0.00000000	    -17.90509306	     -5.25499705	    -20.46703370	     21.22797789	     90.00000001	      0.00000000	      0.00000000
      3.49000000	      1.13936971	     -1.90184506	    -10.10392752	      1.70290158	      0.89052249	     -0.08102021	    -18.16929965	     -0.61211937	      2.40560131	     13.81848375	      5.46745373	      0.24117804	     14.80604990	      2.24812992	     -7.50000503	     23.47874954	     -5.84531103	     -8.04346305	      9.01866454	      4.76347381	      0.15740539	    -11.50352338	    -18.26858466	     -7.50000503	    -12.91057356	     -1.07109378	      4.33654606	      5.02041135	    -20.17268391	      5.76631180	     51.43906998	     90.00000001	      0.00000000	      0.00000000	    -17.30380949	     -5.44943928	    -20.50639349	     20.72261838	     90.00000001	      0.00000000	      0.00000000
      3.50000000	      1.11875594	     -1.71025800	     -9.98528084	      1.71624318	      0.89030169	     -0.08178479	    -18.30813001	     -1.07256807	      2.67343572	     15.01616300	      5.74326430	      0.26208149	     13.43814148	      1.51089491	     -7.50000492	     23.59656998	     -5.55171802	     -6.85121595	     10.41348934	      4.98635295	      0.18174968	    -12.32148837	    -18.57837927	     -7.50000492	    -12.73606309	     -1.44391571	      4.19898983	      4.40146245	    -19.93968207	      5.74862267	     51.06440829	     90.00000001	      0.00000000	      0.00000000	    -16.91347252	     -5.67456089	    -20.45417870	     20.66985542	     90.00000001	      0.00000000	      0.00000000
      3.51000000	      1.14185976	     -1.50588084	     -9.80071204	      1.72964329	      0.89058117	     -0.08272312	    -18.35314837	     -1.54349635	      3.08878793	     16.39907309	      6.12637175	      0.28621782	     11.59453918	      0.17769801	     -7.50000482	     23.64207746	     -5.23483826	     -5.70471991	     11.80149633	      5.25848196	      0.20597497	    -12.93137157	    -18.81417903	     -7.50000482	    -12.61474380	     -1.80804943	      4.02770411	      3.77379410	    -19.68389530	      5.61136117	     50.49357600	     90.00000001	      0.00000000	      0.00000000	    -16.38528978	     -5.86759518	    -20.34700810	     20.48718793	     90.00000001	      0.00000000	      0.00000000
      3.52000000	      1.22458748	     -1.39157324	     -9.61881737	      1.74306383	      0.89153942	     -0.08353438	    -18.61605980	     -1.85692452	      5.50378700	     17.32056867	      6.95939830	      0.30230095	      8.37592986	     -5.31883667	     -7.50000446	     23.48965543	     -5.07921120	     -4.64115583	     13.06092543	      5.66620747	      0.22795615	    -13.25457562	    -18.94075180	     -7.50000446	    -12.56976589	     -2.10533791	      3.89763790	      3.30247151	    -19.09571641	      4.91273602	     49.33523615	     90.00000001	      0.00000000	      0.00000000	    -15.47525502	     -6.12150736	    -20.37394776	     19.70624492	     90.00000001	      0.00000000	      0.00000000
